<svg height='300px' width='300px'  fill="#251343" xmlns="http://www.w3.org/2000/svg" xmlns:xlink="http://www.w3.org/1999/xlink" version="1.1" x="0px" y="0px" viewBox="0 0 24 24" style="enable-background:new 0 0 24 24;" xml:space="preserve"><path d="M23.227,14.838c-0.046-0.104-0.127-0.201-0.224-0.294c-0.002-0.003-0.009-0.012-0.01-0.013  c-0.036-0.042-0.078-0.075-0.125-0.098c-0.54-0.421-1.5-0.726-2.144-0.893c0.002-0.657-0.191-1.103-0.381-1.362  c-0.458-0.625-2.063-1.972-2.23-2.113c-0.099-0.089-2.402-2.185-2.814-2.519c-0.845-0.613-2.18-0.163-3.444,0.342  c-0.418,0.126-0.815,0.321-1.19,0.561l-3.302-2.07C7.32,6.357,6.307,5.78,4.977,5.476C2.194,4.824,1.278,5.853,1.139,6.039  c-0.076,0.149-0.74,1.475-0.631,2.267c0.222,1.6,2.219,2.646,3.541,3.337c0.254,0.133,0.485,0.254,0.674,0.363  c0.845,0.49,2.056,1.341,3.338,2.243c1.741,1.224,3.542,2.49,4.525,2.911c2.305,1.21,4.275,1.577,5.818,1.577  c1.772,0,2.979-0.485,3.476-0.73c0.911-0.451,1.445-1.031,1.588-1.725c0.114-0.554-0.057-1.04-0.224-1.36  C23.235,14.895,23.24,14.866,23.227,14.838z M19.921,13.809c-0.002,0.019,0.004,0.037,0.005,0.055  c0.001,0.027,0.001,0.054,0.007,0.08c0.006,0.025,0.016,0.047,0.027,0.07c0.011,0.024,0.021,0.047,0.036,0.068  c0.014,0.02,0.032,0.036,0.05,0.054c0.019,0.018,0.037,0.036,0.06,0.051c0.021,0.014,0.045,0.022,0.069,0.032  c0.018,0.007,0.033,0.02,0.053,0.024c0.868,0.201,1.741,0.527,2.106,0.716c0.015,0.031,0.027,0.064,0.051,0.092  c0,0,0.006,0.008,0.006,0.009c-0.782,0.399-3.606,1.609-6.979,0.414c0.508-0.943,1.996-3.296,3.883-3.268  c0.176,0.176,0.32,0.332,0.404,0.448C19.812,12.807,19.992,13.164,19.921,13.809z M12.118,8.644c1.118-0.444,2.22-0.804,2.694-0.462  c0.377,0.306,2.738,2.455,2.774,2.487c0.207,0.173,0.574,0.487,0.949,0.824c-1.949,0.47-3.33,2.679-3.835,3.614l-5.776-3.825  C9.69,10.236,10.801,9.045,12.118,8.644z M4.798,6.256C6.005,6.532,6.95,7.067,6.95,7.067l3.026,1.897  c-0.679,0.567-1.259,1.245-1.719,1.876L1.771,6.546C1.78,6.527,1.792,6.497,1.801,6.479C1.807,6.472,2.514,5.72,4.798,6.256z   M21.524,17.29c-0.84,0.418-3.943,1.589-8.595-0.851c-0.935-0.401-2.701-1.643-4.409-2.844c-1.297-0.912-2.521-1.773-3.396-2.281  c-0.197-0.114-0.438-0.24-0.704-0.379c-1.177-0.616-2.954-1.547-3.119-2.739c-0.03-0.211,0.054-0.554,0.167-0.892l13.165,8.717  c0.008,0.005,0.018,0.003,0.026,0.008c0.015,0.009,0.027,0.022,0.043,0.029c1.33,0.543,2.59,0.739,3.713,0.739  c1.979,0,3.517-0.607,4.271-1.009c0.013,0.107,0.022,0.217-0.002,0.333C22.594,16.561,22.203,16.954,21.524,17.29z"></path></svg>