<svg height="300" width="300" fill="#251343" xmlns="http://www.w3.org/2000/svg" viewBox="0 0 24 24"><path d="M23.227 14.838a.971.971 0 00-.224-.294.39.39 0 00-.135-.111c-.54-.421-1.5-.726-2.144-.893.002-.657-.191-1.103-.381-1.362-.458-.625-2.063-1.972-2.23-2.113-.099-.089-2.402-2.185-2.814-2.519-.845-.613-2.18-.163-3.444.342a4.773 4.773 0 00-1.19.561l-3.302-2.07c-.043-.022-1.056-.599-2.386-.903-2.783-.652-3.699.377-3.838.563-.076.149-.74 1.475-.631 2.267.222 1.6 2.219 2.646 3.541 3.337.254.133.485.254.674.363.845.49 2.056 1.341 3.338 2.243 1.741 1.224 3.542 2.49 4.525 2.911 2.305 1.21 4.275 1.577 5.818 1.577 1.772 0 2.979-.485 3.476-.73.911-.451 1.445-1.031 1.588-1.725.114-.554-.057-1.04-.224-1.36-.009-.027-.004-.056-.017-.084zm-3.306-1.029c-.002.019.004.037.005.055.001.027.001.054.007.08a.35.35 0 00.027.07c.011.024.021.047.036.068.014.02.032.036.05.054.019.018.037.036.06.051.021.014.045.022.069.032.018.007.033.02.053.024.868.201 1.741.527 2.106.716.015.031.027.064.051.092l.006.009c-.782.399-3.606 1.609-6.979.414.508-.943 1.996-3.296 3.883-3.268.176.176.32.332.404.448.113.153.293.51.222 1.155zm-7.803-5.165c1.118-.444 2.22-.804 2.694-.462.377.306 2.738 2.455 2.774 2.487.207.173.574.487.949.824-1.949.47-3.33 2.679-3.835 3.614l-5.776-3.825c.766-1.046 1.877-2.237 3.194-2.638zm-7.32-2.388a8.89 8.89 0 012.152.811l3.026 1.897c-.679.567-1.259 1.245-1.719 1.876L1.771 6.546l.03-.067c.006-.007.713-.759 2.997-.223zM21.524 17.29c-.84.418-3.943 1.589-8.595-.851-.935-.401-2.701-1.643-4.409-2.844-1.297-.912-2.521-1.773-3.396-2.281-.197-.114-.438-.24-.704-.379-1.177-.616-2.954-1.547-3.119-2.739-.03-.211.054-.554.167-.892l13.165 8.717c.008.005.018.003.026.008.015.009.027.022.043.029 1.33.543 2.59.739 3.713.739 1.979 0 3.517-.607 4.271-1.009.013.107.022.217-.002.333-.09.44-.481.833-1.16 1.169z"/></svg>